<svg xmlns="http://www.w3.org/2000/svg" width="28" height="22">
    <g fill-rule="evenodd">
        <path
            d="M13.885 16.034c-4.155 0-7.567 2.556-7.849 5.781h15.695c-.296-3.238-3.702-5.78-7.846-5.78M7.869 8.399c0 3.26 2.699 5.913 6.016 5.913 3.318 0 6.017-2.653 6.017-5.913 0-3.261-2.7-5.914-6.017-5.914S7.87 5.138 7.87 8.4M21.289 11.698c-.288 0-.57.021-.848.051a7.406 7.406 0 01-3.58 3.322c1.418.401 2.685 1.081 3.706 1.958h7.2v-.023c0-2.932-2.9-5.308-6.478-5.308">
        </path>
        <path
            d="M21.287 8.399c0 .598-.092 1.172-.23 1.73.077.003.153.011.232.011 2.783 0 5.039-2.27 5.039-5.07 0-2.8-2.256-5.07-5.04-5.07-1.61 0-3.04.763-3.963 1.946 2.352 1.224 3.962 3.655 3.962 6.453M10.9 15.07a7.402 7.402 0 01-3.577-3.322 8.047 8.047 0 00-.844-.05c-3.578 0-6.48 2.376-6.48 5.308l.002.023h7.184c1.022-.878 2.292-1.559 3.715-1.96M6.48 10.14c.076 0 .152-.008.228-.012a7.117 7.117 0 01-.23-1.73c0-2.798 1.61-5.23 3.964-6.453A5.014 5.014 0 006.479 0C3.696 0 1.44 2.27 1.44 5.07c0 2.8 2.256 5.07 5.04 5.07">
        </path>
    </g>
</svg>
