<svg xmlns="http://www.w3.org/2000/svg" width="28" height="27" aria-hidden="true">
    <g fill-rule="evenodd">
        <path
            d="M6.051 5.83h1.307c.42 0 .762-.342.762-.763V.764A.763.763 0 007.358 0H6.05a.763.763 0 00-.762.764v4.303c0 .421.341.763.762.763zM20.148 5.83h1.306c.421 0 .762-.342.762-.763V.764A.763.763 0 0021.454 0h-1.306a.763.763 0 00-.762.764v4.303c0 .421.341.763.762.763">
        </path>
        <path
            d="M2.115 24.38H25.39V8.48H2.115zM25.39 3.18h-2.116v1.887a1.824 1.824 0 01-1.82 1.823h-1.306a1.824 1.824 0 01-1.82-1.823V3.18h-9.15v1.887a1.824 1.824 0 01-1.82 1.823H6.05a1.824 1.824 0 01-1.82-1.823V3.18H2.116C.947 3.18 0 4.13 0 5.3v19.08c0 1.171.947 2.12 2.116 2.12H25.39a2.118 2.118 0 002.116-2.12V5.3c0-1.17-.947-2.12-2.116-2.12z">
        </path>
        <path
            d="M18.746 15.9h4.825c.42 0 .76-.342.76-.763v-4.833a.762.762 0 00-.76-.764h-4.825a.763.763 0 00-.762.764v4.833c0 .421.341.763.762.763M11.34 15.9h4.825c.42 0 .761-.342.761-.763v-4.833a.762.762 0 00-.76-.764H11.34a.763.763 0 00-.762.764v4.833c0 .421.341.763.762.763M3.935 15.9H8.76c.42 0 .76-.342.76-.763v-4.833a.762.762 0 00-.76-.764H3.935a.763.763 0 00-.761.764v4.833c0 .421.34.763.761.763M18.746 23.32h4.825c.42 0 .76-.341.76-.763v-4.833a.762.762 0 00-.76-.764h-4.825a.763.763 0 00-.762.764v4.833c0 .422.341.763.762.763M11.34 23.32h4.825c.42 0 .761-.341.761-.763v-4.833a.762.762 0 00-.76-.764H11.34a.763.763 0 00-.762.764v4.833c0 .422.341.763.762.763M3.935 23.32H8.76c.42 0 .76-.341.76-.763v-4.833a.762.762 0 00-.76-.764H3.935a.763.763 0 00-.761.764v4.833c0 .422.34.763.761.763">
        </path>
    </g>
</svg>
