<svg xmlns="http://www.w3.org/2000/svg" width="23" height="28">
    <path fill-rule="evenodd"
        d="M22.505 3.784c-.44 1.437-1.673 1.9-2.877 2.356-2.822 1.066-5.773 1.33-8.75 1.258a40.166 40.166 0 01-4.866-.406c-1.688-.249-3.342-.709-4.813-1.649-.31-.198-.6-.454-.838-.736-.453-.54-.429-1.27.02-1.818.795-.969 1.912-1.376 3.04-1.726C5.013.57 6.635.217 8.309.161c.35-.012.7-.105 1.05-.161h3.729c.458.06.915.143 1.376.178 2.052.16 4.045.577 5.94 1.408.964.423 1.781 1.011 2.102 2.103v.095zm0 8.04c-.3.545-.81.843-1.349 1.023-1.16.388-2.328.777-3.52 1.033-2.488.535-5.023.655-7.556.558-2.965-.113-5.922-.359-8.708-1.552-.071-.031-.142-.062-.214-.091-.816-.334-1.227-.858-1.149-1.839C.107 9.735.031 8.5.032 7.27c0-.136.014-.273.025-.498l.898.481c1.728.93 3.614 1.317 5.52 1.611a30.83 30.83 0 006.134.31c2.675-.123 5.32-.46 7.846-1.43.563-.215 1.084-.54 1.633-.797.12-.055.277-.03.417-.04v4.918zm0 7c-.55.838-1.447 1.12-2.305 1.407-2.06.69-4.194.964-6.357 1.118-3.732.266-7.417.045-11.036-.94-.77-.21-1.492-.606-2.221-.95-.39-.185-.574-.513-.563-.991.028-1.26.008-2.522.009-3.783 0-.121.016-.243.027-.387.722.27 1.402.563 2.104.776 1.895.576 3.837.913 5.813.996 1.72.073 3.447.186 5.164.112 2.543-.11 5.075-.403 7.514-1.218.47-.157.921-.373 1.388-.541.142-.051.308-.032.463-.045v4.446zM8.61 28c-.935-.125-1.872-.234-2.804-.379-1.583-.246-3.14-.587-4.54-1.434C.432 25.68-.062 25.006.021 23.95c.058-.736.01-1.48.012-2.22 0-.135.016-.27.028-.47.49.209.916.419 1.361.574 2.036.71 4.144 1.061 6.283 1.233 2.885.23 5.77.206 8.64-.171 1.985-.261 3.95-.634 5.78-1.52.103-.05.252-.002.38.001V24.5c-.225.954-.897 1.491-1.707 1.911-1.313.68-2.728.994-4.169 1.212-.93.14-1.864.252-2.796.377H8.61z">
    </path>
</svg>
