<svg xmlns="http://www.w3.org/2000/svg" width="28" height="28" aria-hidden="true">
    <path fill-rule="evenodd"
        d="M24.645 13.144h-3.286a.822.822 0 000 1.643h3.286a.822.822 0 000-1.643zm-9.858 8.215a.822.822 0 10-1.643 0v3.286a.822.822 0 001.643 0v-3.286zm0-18.073a.822.822 0 10-1.643 0v3.286a.822.822 0 001.643 0V3.286zm-8.215 9.858H3.286a.822.822 0 000 1.643h3.286a.822.822 0 000-1.643zm19.716 5.75h-7.393v7.394c0 .908-.735 1.643-1.643 1.643H10.68a1.642 1.642 0 01-1.644-1.643v-7.393H1.643A1.643 1.643 0 010 17.25V10.68c0-.908.735-1.644 1.643-1.644h7.393V1.643C9.036.735 9.772 0 10.68 0h6.572c.908 0 1.643.735 1.643 1.643v7.393h7.393c.908 0 1.643.736 1.643 1.644v6.571c0 .908-.735 1.644-1.643 1.644z">
    </path>
</svg>
