<svg role="img" aria-hidden="true" viewBox="0 0 28 28" xmlns="http://www.w3.org/2000/svg"><path d="m30.4841852 24.7170185c.624037-1.7085833 1.4725926-3.0461018 2.3461667-3.7133055v4.0257777c-.7992963-.0533426-1.5861482-.1581481-2.3461667-.3124722zm-1.1300463 6.1163148c.0589167-1.3657129.22575-2.6790555.4969352-3.9115092.9853796.2076666 1.9852778.3414444 2.9792778.3986111v3.5128981zm-1.0858426 9.0450371c.3457222.9910185.7512037 1.8782037 1.2106759 2.6495648-1.1059352-.4781389-2.1200278-1.1190278-3.0258148-1.9128148.5976574-.2811667 1.2059445-.5281111 1.8151389-.73675zm-1.2083426-6.7117037c.0666296 1.569037.2612037 3.0829814.5793148 4.5078055-.9543981.3232315-1.8975185.7226204-2.8091389 1.1896111-1.2530648-1.6709259-2.0191111-3.6311852-2.2271666-5.6974166zm-.6013518-9.7823056c.9098055-.8018889 1.9226666-1.4424537 3.0221851-1.9117778-.4570092.7648797-.8630092 1.6518704-1.212037 2.6485278-.6085463-.2097407-1.215213-.4566852-1.8101481-.73675zm1.1860462 2.9355278c-.3232314 1.4245-.5177407 2.93825-.5791203 4.506963h-4.4567963c.2026759-2.060463.9686574-4.0203334 2.2271018-5.6967038.9112315.4717871 1.8540926.871176 2.8088148 1.1897408zm5.1857038 12.6441389v4.033037c-.8714352-.6648055-1.719926-2.0049167-2.3461667-3.7206296.7587222-.154 1.5455092-.2587408 2.3461667-.3124074zm-2.9792778-1.8923334c-.2710556-1.2318055-.4378889-2.5428796-.4969352-3.9050277h3.476213v3.5064166c-.9951667.057426-1.995.1912037-2.9792778.3986111zm11.0436018-6.2383611c-.0665-1.5625555-.261074-3.0763055-.5793148-4.5069629.9746852-.3265371 1.9288241-.7302685 2.8421945-1.2027685 1.2569537 1.6746203 2.0250092 3.6390277 2.233 5.7097314zm-.5791203 6.8338797c.3180463-1.4247593.5125555-2.9363704.5791203-4.5005463h4.4958148c-.208574 2.074787-.9764351 4.0370555-2.2324814 5.7034444-.9135-.4725-1.8677037-.8763611-2.8424537-1.2028981zm-5.1524537 1.2904629c.7828333.0529537 1.5589907.1558797 2.3144722.306963-.6134074 1.6976296-1.4502963 3.0304815-2.3144722 3.7013796zm4.5302314-14.8291759c-.3486389-1.0035926-.758787-1.8995926-1.224287-2.6752315 1.11475.4741852 2.1418704 1.1214259 3.0648981 1.9314815-.6036203.2837593-1.2204629.5329722-1.8406111.74375zm.0064815 15.7430648c.6166482.21 1.2333611.4608333 1.8402871.7486111-.9133704.7948241-1.9562408 1.4493889-3.0630186 1.9238982.4648519-.7750556.8744815-1.6700185 1.2227315-2.6725093zm-1.0929074-6.7048981c-.0590463 1.3634444-.22575 2.6723148-.4966111 3.8980926-.9550463-.2026112-1.9441204-.3340556-2.9471944-.391676v-3.5064166zm-3.4438055-8.1308889v-4.0019259c.8634629.67025 1.7001574 2.000574 2.3142129 3.6950925-.7553518.1510186-1.5315092.2539445-2.3142129.3068334zm2.9467407 1.8920741c.2713796 1.2326481.4382778 2.5440462.4970648 3.9054814h-3.4438055v-3.5129629c.9813611-.056713 1.9703055-.1884815 2.9467407-.3925185zm-4.1130833-8.9278519h-.0463426c-3.7240648.0134167-7.2275648 1.4737593-9.8656574 4.1125-2.6340741 2.6482037-4.0847593 6.1596111-4.0847593 9.8875 0 3.7304167 1.4529537 7.2418889 4.0912407 9.8874352 2.6310926 2.6385463 6.1345278 4.0990833 9.8657223 4.1125648h.0463426c7.717824 0 13.9966944-6.2804259 13.9966944-14 0-7.7196389-6.2818519-14-14.0032407-14z" fill="currentColor" fill-rule="evenodd" transform="translate(-20 -18)"></path></svg>