<svg xmlns="http://www.w3.org/2000/svg" width="23" height="28">
    <path fill-rule="evenodd"
        d="M16.965 5.535h2.827V2.77h-2.827v2.765zm0 4.608h2.827V7.378h-2.827v2.765zm0 4.608h2.827v-2.765h-2.827v2.765zm0 4.608h2.827v-2.765h-2.827v2.765zm0 4.608h2.827v-2.765h-2.827v2.765zm-4.71-18.432h2.826V2.77h-2.827v2.765zm0 4.608h2.826V7.378h-2.827v2.765zm0 4.608h2.826v-2.765h-2.827v2.765zm0 4.608h2.826v-2.765h-2.827v2.765zM7.542 5.535h2.827V2.77H7.543v2.765zm0 4.608h2.827V7.378H7.543v2.765zm0 4.608h2.827v-2.765H7.543v2.765zm0 4.608h2.827v-2.765H7.543v2.765zM2.833 5.535h2.826V2.77H2.832v2.765zm0 4.608h2.826V7.378H2.832v2.765zm0 4.608h2.826v-2.765H2.832v2.765zm0 4.608h2.826v-2.765H2.832v2.765zm0 4.608h2.826v-2.765H2.832v2.765zm19.78-22.124c0-1.018-.844-1.844-1.884-1.843L1.884.004C.844.004 0 .83 0 1.847l.006 25.806 7.537-.002v-5.53h6.595v5.529l8.48-.002-.005-25.805z"
        aria-hidden="true"></path>
</svg>
