<svg viewBox="0 0 44 44" xmlns="http://www.w3.org/2000/svg"><g fill-rule="nonzero"><path d="M0 43.999472h44V.000352H0z"></path><path d="M13.6796 12.694264c0-.9328.36256-1.8084 1.0208-2.46576.65912-.65912 1.53472-1.02168 2.46664-1.02168h2.88288v16.6408h-2.88288c-.93192 0-1.80752-.36256-2.46576-1.0208-.65912-.65824-1.02168-1.53472-1.02168-2.46664v-9.66592zm3.48744 14.7532h4.33664c.08008 0 .14608-.06512.14608-.1452V7.752184c0-.08096-.066-.1452-.14608-.1452h-4.33664c-2.80896 0-5.08728 2.27744-5.08728 5.08728v9.66592c0 2.80984 2.27832 5.08728 5.08728 5.08728zm10.39192-6.92208c-1.10704 0-2.00552-.89848-2.00552-2.0064 0-1.10792.89848-2.00552 2.00552-2.00552 1.1088 0 2.0064.8976 2.0064 2.00552 0 1.10792-.8976 2.0064-2.0064 2.0064zm4.36128 1.8348v-9.66592c0-2.80984-2.27744-5.08728-5.08728-5.08728h-3.06944c-.07128 0-.12848.0572-.12848.12936v19.56592c0 .08008.06424.1452.1452.1452h3.05272c2.80984 0 5.08728-2.27744 5.08728-5.08728zm-14.88608-6.93528c1.0296 0 1.8656-.836 1.8656-1.86648 0-1.0296-.836-1.86472-1.8656-1.86472-1.03048 0-1.8656.83512-1.8656 1.86472 0 1.03048.83512 1.86648 1.8656 1.86648zm3.82624 15.72208h-1.12816v5.25184h4.00664v-1.02432H20.8604v-4.22752zm3.97232 5.25184h1.12816v-5.25184h-1.12816v5.25184zm6.32808-1.86384l-2.61448-3.388h-1.05776v5.25184h1.06128v-3.50152l2.79576 3.50152h.93016v-5.25184H31.1608v3.388zm-14.0712 0l-2.61448-3.388h-1.05776v5.25184h1.06216v-3.50152l2.79488 3.50152h.93104v-5.25184H17.0896v3.388zm21.05752-2.36368v-1.02432h-4.33664v5.25184h4.33664v-1.02432h-3.20848v-1.18624h3.05272v-.9724h-3.05272v-1.04456h3.20848zm-28.84288 3.32992c-.92136 0-1.66936-.77352-1.66936-1.72832 0-.95392.748-1.72744 1.66936-1.72744.92224 0 1.66936.77352 1.66936 1.72744 0 .9548-.74712 1.72832-1.66936 1.72832zm0-4.52496c-1.5664 0-2.83712 1.25224-2.83712 2.79664s1.27072 2.79664 2.83712 2.79664c1.56816 0 2.838-1.25224 2.838-2.79664s-1.26984-2.79664-2.838-2.79664z" fill="currentColor"></path></g></svg>