<svg viewBox="0 0 24 44" xmlns="http://www.w3.org/2000/svg"><path d="M21.147683.00002973H1.92027855C.86779362-.00315598.01007365.84380155 0 1.89624318V42.1037123c.00304642.5061409.20710862.9903246.56726324 1.3459601.3601546.3556355.84687624.5535679 1.35301531.5502762H21.1345879c.5049237.0037104.9906091-.1935178 1.3499557-.5482461.3593466-.3547283.5628405-.837822.5656085-1.3427521V1.87529088c-.0092197-1.0424645-.85998-1.88104433-1.9024691-1.87526115zM8.05720805 1.68672015h6.92211705c.6887608.01976173 1.2368559.58380817 1.2368559 1.2728524 0 .68904423-.5480951 1.25309067-1.2368559 1.27285239H8.05720805c-.68876079-.01976172-1.23685588-.58380816-1.23685588-1.27285239 0-.68904423.54809509-1.25309067 1.23685588-1.2728524zM20.3393964 37.0199248c-.0709988.5527056-.5327354.9468713-1.0472217.8939702H3.75556195c-.51619002.0570971-.98108743-.3386998-1.0500445-.8939702V6.81795518c.06500911-.55831806.5317218-.95791811 1.0500445-.89904954H19.2921747c.5166049-.05460597.9801091.34331665 1.0472217.89904954V37.0199248zm-2-1.8875913c-.0548937.4836309-.4118918.8285354-.8096741.7822456H5.51737397c-.3990995.0499614-.7585414-.2963705-.81185652-.7822456V8.70487707c.0502627-.48854186.41110811-.8382016.81185652-.78669018H17.5297223c.3994204-.04778155.7577851.30041041.8096741.78669018V35.1323335z" fill-rule="evenodd"></path></svg>