<svg viewBox="0 0 19 18" xmlns="http://www.w3.org/2000/svg"><g fill-rule="evenodd"><path d="M16.2543251.00028896H2.23960936c-1.22809364 0-2.23946488 1.01137124-2.23946488 2.23946489V12.4972254c0 1.2288161 1.01137124 2.2401873 2.23946488 2.2401873h4.84013378c.07224081 0 .07224081 0 .07224081.0722408l2.09498327 2.5284281c0 .0715184.07224081.0715184.07224081.0715184.0722408 0 .0722408 0 .1444816-.0715184l2.09498327-2.5284281c0-.0722408.0715184-.0722408.0715184-.0722408h4.6241338c1.2280936 0 2.2387425-1.0113712 2.2387425-2.2401873V2.23975385c0-1.22809365-1.0106489-2.23946489-2.2387425-2.23946489"></path><path d="M8.16306622 11.1253726c0-.1444816 0-.2889632.0722408-.4341672.07224081-.1444817.14448161-.216.21672241-.3612041.0722408-.0715184.21672241-.1444816.36120401-.216.14448161-.0722408.28896322-.0722408.43344482-.0722408.14448161 0 .28896321 0 .43344482.0722408.1444816.0715184.28896321.1444816.36120402.216.0722408.0729632.2167224.2167224.2167224.3612041.0722408.145204.0722408.2896856.0722408.4341672 0 .1437592 0 .2882408-.0722408.4334448-.0722408.1444816-.1444816.2889632-.2167224.361204-.07224081.0715184-.21672242.1444816-.36120402.216-.14448161.0729632-.28896321.0729632-.43344482.0729632-.1444816 0-.28896321 0-.43344482-.0729632-.1444816-.0715184-.28896321-.1444816-.36120401-.216-.0722408-.0722408-.21672241-.2167224-.21672241-.361204 0-.145204-.0722408-.2896856-.0722408-.4334448zM7.00721338 3.54008829c.1444816-.1444816.36120401-.28896321.50568562-.36120401.2167224-.1444816.36120401-.21672241.57792642-.28896321.21672241-.0722408.43344481-.14520401.72240802-.21672241.21672241-.0722408.50568562-.0722408.79464883-.0722408.43344483 0 .79537123.0722408 1.08361203.1437592.361204.14520401.5779264.28968562.8668896.43416722.2167225.21672241.4334449.43344482.5056857.72240803.145204.2882408.2167224.64944481.2167224.93913043 0 .36120402-.0715184.65016723-.1444816.86688963-.0722408.21672241-.2167224.43344482-.361204.64944482-.1444817.21744482-.2882408.36120401-.4334449.43416722-.1444816.14448161-.361204.21672241-.5056856.36120402-.1444816.1444816-.2889632.21672241-.361204.36120401-.1444816.0722408-.2167224.21672241-.2167224.36120401l-.1444816.86688964H8.74099264l-.1444816-1.01137124c0-.21672241 0-.36120401.0722408-.57792642.0722408-.14448161.21672241-.28896321.28896321-.43416723.0722408-.14375919.28896321-.216.43344482-.36120401.1444816-.1437592.36120401-.216.50568561-.36120401.14448162-.1437592.28896322-.28824081.36120402-.43272241.0722408-.14448161.145204-.36120401.145204-.57792642 0-.28896321-.0729632-.43416723-.2896856-.65016723-.14448161-.14520401-.43344482-.2167224-.72240803-.2167224-.21672241 0-.43344482 0-.57792643.07151839-.0722408.07296321-.2167224.14520401-.36120401.14520401-.1444816 0-.21672241.14448161-.28896321.14448161-.0722408.07151839-.1444816.07151839-.21672241.07151839-.21672241 0-.28896321-.07151839-.43344481-.216l-.50568562-.79464883z" fill="currentColor"></path></g></svg>