<svg viewBox="0 0 105 19" xmlns="http://www.w3.org/2000/svg"><path d="M2.98457504 5.69984991c0 .98662313.80690794 1.78637823 1.80235521 1.78637823s1.80235521-.7997551 1.80235521-1.78637823c0-.98662314-.80690794-1.78637824-1.80235521-1.78637824s-1.80235521.7997551-1.80235521 1.78637824zM14.2547847 0h-2.9656454c-.0691563 0-.1249357.05503476-.1249357.1238282V18.860662c0 .0767985.0625941.139338.1403318.139338h2.9502493c2.714512 0 4.9151471-2.1811276 4.9151471-4.8718269V4.87182694C19.1699318 2.18112755 16.9692967 0 14.2547847 0zm.7019115 12.3708131c-1.0704087 0-1.9381439-.8600431-1.9381439-1.9209632 0-1.06092005.8677352-1.92096323 1.9381439-1.92096323s1.9381439.86004318 1.9381439 1.92096323c0 1.0609201-.8677352 1.9209632-1.9381439 1.9209632zM9.10541472 0H4.91539948C2.20088747 0 0 2.18112755 0 4.87182694v9.25634616C0 16.8188724 2.20088747 19 4.91539948 19h4.19001524c.07799017 0 .14058421-.0625395.14058421-.139338V.13908784C9.24599893.06228934 9.18340489 0 9.10541472 0zM7.70058219 17.4682826H4.91539948c-.90029422 0-1.74657583-.3474695-2.38286452-.9781178-.63654108-.6306483-.98686582-1.469428-.98686582-2.3619917V4.87182694c0-.89281388.35032474-1.73134348.98661343-2.36174162.63628868-.63089847 1.48282269-.97836792 2.38311691-.97836792h2.78518271v15.9365652zM30.8447312 2.97012587c-4.028987 0-7.2954877 3.19051506-7.2954877 7.12625083 0 3.9354855 3.2665007 7.1260006 7.2954877 7.1260006 4.0294918 0 7.29574-3.1905151 7.29574-7.1260006 0-3.93573577-3.2662482-7.12625083-7.29574-7.12625083zm0 11.52853113c-2.3702448 0-4.291983-1.9709948-4.291983-4.4022803 0-2.43153575 1.9217382-4.40228043 4.291983-4.40228043 2.3704971 0 4.2919829 1.97074468 4.2919829 4.40228043 0 2.4312855-1.9214858 4.4022803-4.2919829 4.4022803zm39.924654 2.289446h2.9000226V3.40440015h-2.9000226V16.788103zM105 6.01454866V3.40440015H93.8504353V16.788103H105v-2.6101485h-8.2495421V11.154545h7.8494951V8.67673004h-7.8494951V6.01454866H105zM87.0385372 12.0368522l-6.7217931-8.63245205h-2.7205695V16.788103H80.32684V7.86371656l7.1867052 8.92438644h2.3919508V3.40440015h-2.8669588v8.63245205zm-36.1768354 0l-6.7220454-8.63245205h-2.7203171V16.788103h2.7304129V7.86371656l7.18721 8.92438644h2.391446V3.40440015h-2.8667064v8.63245205zm9.6937483-8.63245205h-2.9005274V16.788103H67.955177v-2.6101485h-7.3997269V3.40440015z" fill-rule="evenodd"></path></svg>