<svg viewBox="0 0 45 44" xmlns="http://www.w3.org/2000/svg"><g fill-rule="evenodd"><path d="M9.88204934 9.50085098h2.13362426c.6872516 0 1.2442399-.55692734 1.2442399-1.24410381V1.24425352c0-.68717647-.5569883-1.2441038-1.2442399-1.2441038H9.88204934c-.68725162 0-1.24423985.55692733-1.24423985 1.2441038v7.01249365c0 .68717647.55698823 1.24410381 1.24423985 1.24410381zM32.902433 9.50085098h2.1336243c.6872516 0 1.2442398-.55692734 1.2442398-1.24410381V1.24425352c0-.68717647-.5569882-1.2441038-1.2442398-1.2441038H32.902433c-.6872516 0-1.2442399.55692733-1.2442399 1.2441038v7.01249365c0 .68717647.5569883 1.24410381 1.2442399 1.24410381"></path><path d="M3.45422543 39.7306272H41.4626834V13.8185349H3.45422543v25.9120923zM41.4626834 5.1816699h-3.4542255v3.07507727c0 1.63934256-1.3340766 2.97177623-2.9721012 2.97177623h-2.1336243c-1.6380245 0-2.9721012-1.33243367-2.9721012-2.97177623V5.1816699H14.9877748v3.07507727c0 1.63934256-1.3340766 2.97177623-2.9721012 2.97177623H9.88204934c-1.63802455 0-2.97210121-1.33243367-2.97210121-2.97177623V5.1816699H3.45572271C1.54669045 5.1816699 0 6.72968835 0 8.63701476V39.7306272c0 1.9088235 1.54669045 3.4553449 3.45572271 3.4553449H41.4626834c1.9090322 0 3.4557227-1.5465214 3.4557227-3.4553449V8.63701476c0-1.90732641-1.5466905-3.45534486-3.4557227-3.45534486z"></path><path d="M30.6135407 25.9114934h7.8786885c.6857543 0 1.2427425-.5569273 1.2427425-1.2441038v-7.8763299c0-.6871764-.5569882-1.2441038-1.2427425-1.2441038h-7.8786885c-.6872516 0-1.2442398.5569274-1.2442398 1.2441038v7.8763299c0 .6871765.5569882 1.2441038 1.2442398 1.2441038M18.5201583 25.9114934h7.8786884c.6857543 0 1.2427426-.5569273 1.2427426-1.2441038v-7.8763299c0-.6871764-.5569883-1.2441038-1.2427426-1.2441038h-7.8786884c-.6872516 0-1.2442399.5569274-1.2442399 1.2441038v7.8763299c0 .6871765.5569883 1.2441038 1.2442399 1.2441038M6.42677581 25.9114934h7.87868839c.6857544 0 1.2427426-.5569273 1.2427426-1.2441038v-7.8763299c0-.6871764-.5569882-1.2441038-1.2427426-1.2441038H6.42677581c-.68725161 0-1.24423985.5569274-1.24423985 1.2441038v7.8763299c0 .6871765.55698824 1.2441038 1.24423985 1.2441038M30.6135407 38.0037033h7.8786885c.6857543 0 1.2427425-.5569273 1.2427425-1.2441038v-7.8763298c0-.6871765-.5569882-1.2441038-1.2427425-1.2441038h-7.8786885c-.6872516 0-1.2442398.5569273-1.2442398 1.2441038v7.8763298c0 .6871765.5569882 1.2441038 1.2442398 1.2441038M18.5201583 38.0037033h7.8786884c.6857543 0 1.2427426-.5569273 1.2427426-1.2441038v-7.8763298c0-.6871765-.5569883-1.2441038-1.2427426-1.2441038h-7.8786884c-.6872516 0-1.2442399.5569273-1.2442399 1.2441038v7.8763298c0 .6871765.5569883 1.2441038 1.2442399 1.2441038M6.42677581 38.0037033h7.87868839c.6857544 0 1.2427426-.5569273 1.2427426-1.2441038v-7.8763298c0-.6871765-.5569882-1.2441038-1.2427426-1.2441038H6.42677581c-.68725161 0-1.24423985.5569273-1.24423985 1.2441038v7.8763298c0 .6871765.55698824 1.2441038 1.24423985 1.2441038"></path></g></svg>