<svg viewBox="0 0 27 18" xmlns="http://www.w3.org/2000/svg"><g fill-rule="nonzero"><path d="M24.5529954.4562212H2.52995392c-1.23691424 0-2.23963134 1.0027171-2.23963134 2.23963133V15.7603687C.29032258 16.9972829 1.29303968 18 2.52995392 18H24.5529954c1.2369142 0 2.2396313-1.0027171 2.2396313-2.2396313V2.69585253c0-1.23691423-1.0027171-2.23963133-2.2396313-2.23963133zm0 1.49308756c.4123047 0 .7465438.33423903.7465438.74654377V15.7603687c0 .4123047-.3342391.7465437-.7465438.7465437H2.52995392c-.41230475 0-.74654378-.334239-.74654378-.7465437V2.69585253c0-.41230474.33423903-.74654377.74654378-.74654377H24.5529954z"></path><path d="M23.2092166 13.7073733v1.2857143h-4.7778802v-1.2857143zM26.4193548 5.30875576v2.61290323H.29032258V5.30875576z"></path></g></svg>