<svg viewBox="0 0 300 280" xmlns="http://www.w3.org/2000/svg"><g fill-rule="evenodd"><path d="M51 191.45v47.33c0 4.66 4.6 9.32 9.2 9.32h95.52V147.45H51v44zM223.06 62.51H76.94l.02.02-38.8 53.89h223.68l-38.8-53.89z" fill="currentColor"></path><path d="M300 116.4l-38.81-53.92v-31C246.11-7.43 48.27-6.6 38.81 31.47v31L0 116.4v31h20v91.33c0 22.14 17.24 40.79 39.08 40.79h127.7V147.45H249V278.12c16.75-4.78 29.11-20.84 31-39.34v-91.33h20V116.4zM155.75 248.1H60.23c-4.6 0-9.2-4.66-9.2-9.32v-91.33h104.72V248.1zM38.16 116.42L77 62.53h146.06l38.8 53.89H38.16z" fill-rule="nonzero"></path><path d="M221.72 0H76.84c-18.68 0-34 13.66-38 31.47h222.35C255.71 13.66 240.4 0 221.72 0z" fill-rule="nonzero"></path></g></svg>