<svg viewBox="0 0 26 19" xmlns="http://www.w3.org/2000/svg"><path d="M.11819701 6.0576409L2.6180097 8.55745356c5.84182715-5.83247975 15.33858172-5.8253962 21.18600415.01267671l2.50678341-2.50678341C22.69857422 2.4535987 17.95916895.64995682 13.2136441.6482363 8.46756913.64830306 3.72884754 2.44918975.11819701 6.0576409zm4.44957063 4.45892019l2.50153096 2.50153096c1.63376762-1.63266793 3.8199053-2.53601152 6.1327616-2.53346025 2.31045098-.00205394 4.49589833.90621533 6.13629999 2.5419422l.0011687-.00116869.00460496.00460496 2.51145814-2.51145814c-2.38468884-2.38001416-5.51148243-3.57007282-8.64439356-3.5714296-3.1328425-.00018824-6.2588796 1.18818646-8.64343079 3.56943856zm8.63920098 2.70318962c.63439089.0002704 1.2572752.23707266 1.7368799.71433997.4769924.4793298.71413824 1.10255768.7135155 1.73358055l-.00061885.00171854c-.00165397.63219155-.24196848 1.25739927-.72230239 1.73773318-.48047139.48047139-1.10519774.71906738-1.73732056.72079007-.63102287.00062275-1.2548696-.23480455-1.73358054-.71351549-.47843601-.47843601-.7150318-1.10358872-.71557742-1.73564246.00158524-.63226028.23915026-1.2580176.71962166-1.73848899.48026515-.48026516 1.10712242-.71893014 1.7393827-.72051537z" fill-rule="evenodd"></path></svg>