<svg viewBox="0 0 20 20" xmlns="http://www.w3.org/2000/svg"><path d="M17.7 12.5l1.3-.4-.3-1-1.3.1-2.6.4c-.9-.6-1.5-1.1-2.1-1.6.8-.7 1.8-1.6 2.9-2.4 0 0 .7.2 1.5.5.8.2 1.9.4 1.9.4s.1-.7.3-1.1c-1.3-.4-2.2-.8-2.2-.8 1.3-.9 2.4-1.6 2.4-1.6l-.7-1.2L16.4 5l.2-1.3.1-1.1-1.1-.3s-.2.8-.5 1.6-.8 1.7-.8 1.7c-1 .8-2.1 1.5-2.9 1.9-.1-.9-.2-1.8-.2-3 .6-.9 2.3-3 2.3-3l-.8-.5-1.8 1.4C10.8 1 10.8 0 10.8 0H9.4s0 .9-.1 2.3c0 0-.8-.5-1.7-1.4l-1 .8s.8 1.2 1.2 1.7c.4.5 1.3 1.5 1.3 1.5-.1 1.3-.2 2-.3 2.7-.9-.3-1.6-.5-2.7-.9s-.4-.6-.7-1.7c-.3-1.2-.3-1.8-.3-1.8l-1.4.4.2 1 .2 1c-1.3-.7-2.4-1.2-2.4-1.2L1 5.6s1.1.7 2.4 1.6l-2.2.7.4 1.3s.7-.1 1.6-.3c1-.2 2.3-.5 2.3-.5.8.6 1.7 1.1 2.4 1.6-.7.5-1.9 1.2-2.8 1.7 0 0-.6-.1-1.7-.3-1.1-.1-2.4-.3-2.4-.3l.1 1.4 1.3.4 1.2.4c-1.4 1-3.1 2.1-3.1 2.1l.5.8s1.8-.9 3.1-1.6l-.4 2.2 1.2.2.4-1.3.9-2.3c.9-.7 1.8-1.3 2.8-2 .2 2 0 4.1 0 4.1l-1.5 1.6-.9 1 1 1 1.7-1.5c0 1.4.1 2.4.1 2.4h1.4s0-1 .1-2.4l.7.6 1 .9 1-1-1.8-2-.8-.8c.1-1.2.2-2.5.3-3.6.8.4 1.7 1.1 2.7 1.6l.8 2.1.5 1.3 1.1-.4-.3-1.3-.1-.6 2.4 1.2.7-1.2s-1.1-.7-2.4-1.6"></path></svg>