<svg viewBox="0 0 20 18" xmlns="http://www.w3.org/2000/svg"><g fill-rule="evenodd"><path d="M1.875 11.4593476c0-.0329031.04367305-.0593547.09759039-.0593547h6.67981922c.05391734 0 .09759039.0264516.09759039.0593547v.6312884c0 .0332258-.04367305.0593547-.09759039.0593547H1.97259039c-.05391734 0-.09759039-.0261289-.09759039-.0593547v-.6312884zM0 13.3208708c0 .6388334.56992352 1.1985031 1.22108336 1.1985031h5.44424127c.53120934 0 1.03385904.2417871 1.36134294.6437429C9.26408186 17.0575671 9.95454426 18.0031948 10.0980548 18c.1435105-.003258.8341844-.9705688 2.0720218-2.9019326.3262146-.401342.8288643-.5786935 1.3607083-.5786935h5.2487664c.6498905 0 1.2204487-.5596697 1.2204487-1.1985031V9H0v4.3208708zM1.22104462 0C.54769309 0 0 .50559666 0 1.12711061V7h20V1.12711061C20 .50559666 19.4523069 0 18.7789554 0H1.22104462z"></path></g></svg>