<svg viewBox="0 0 42 18" xmlns="http://www.w3.org/2000/svg"><path d="M37.8699313 0H4.2472541C1.90149278 0 0 1.90178166 0 4.24754298v9.45550272c0 2.3457613 1.90149278 4.2472545 4.2472541 4.2472545h33.6226772c2.3460498 0 4.2478314-1.9014932 4.2478314-4.2472545V4.24754298C42.1177627 1.90178166 40.2159811 0 37.8699313 0zm.1480895 2.8688378c.4102051 0 .7433342.33284064.7433342.74304571 0 .41049395-.3331291.74362347-.7433342.74362347-.4104939 0-.743623-.33312952-.743623-.74362347 0-.41020507.3331291-.74304571.743623-.74304571zm0 3.06282688c.4102051 0 .7433342.33255176.7433342.74333415 0 .41020551-.3331291.74275727-.7433342.74275727-.4104939 0-.743623-.33255176-.743623-.74275727 0-.41078239.3331291-.74333415.743623-.74333415zM4.09367985 3.55819039c.87525835 0 1.58481791.70955956 1.58481791 1.58452946 0 .87554678-.70955956 1.58481791-1.58481791 1.58481791-.87496946 0-1.5839517-.70927113-1.5839517-1.58481791 0-.8749699.70898224-1.58452946 1.5839517-1.58452946zm1.89629693 7.72057491c0 .0915094-.07390054.1654099-.16541034.1654099h-.96474688c-.0969941 0-.17493629.078808-.17493629.1758021v.9644584c0 .0912209-.07447786.1654099-.16569834.1654099h-.83917405c-.09122093 0-.16541034-.074189-.16541034-.1654099v-.9644584c0-.0969941-.07851908-.1758021-.17522474-.1758021h-.96503575c-.09122093 0-.16512103-.0739005-.16512103-.1654099v-.8388856c0-.0912209.0739001-.1654099.16512103-.1654099h.96503575c.09670566 0 .17522474-.0788079.17522474-.1755136v-.96474688c0-.09122093.07418941-.16540991.16541034-.16540991h.83917405c.09122048 0 .16569834.07418898.16569834.16540991v.96474688c0 .0967057.07794219.1755136.17493629.1755136h.96474688c.0915098 0 .16541034.074189.16541034.1654099v.8388856zm2.2097959 4.823158H33.9330012V1.86223302H8.19977268V16.1019233zM35.6618669 5.14358561c0-.41049351.3322633-.74304571.7430457-.74304571.410494 0 .7427573.3325522.7427573.74304571 0 .41049395-.3322633.74304571-.7427573.74304571-.4107824 0-.7430457-.33255176-.7430457-.74304571zm2.3463391 7.30199809c-.8752583 0-1.5842406-.7095596-1.5842406-1.5845295 0-.87525786.7089823-1.58481786 1.5842406-1.58481786.8755468 0 1.5851063.70956 1.5851063 1.58481786 0 .8749699-.7095595 1.5845295-1.5851063 1.5845295zm1.6226341-6.55895238c-.4102055 0-.7433345-.33255176-.7433345-.74304571 0-.41049351.333129-.74304571.7433345-.74304571.4104936 0 .7433342.3325522.7433342.74304571 0 .41049395-.3328406.74304571-.7433342.74304571z" fill-rule="evenodd"></path></svg>