<svg viewBox="0 0 18 18" xmlns="http://www.w3.org/2000/svg"><path d="M12.7814958 2.1770457C9.8718141-.73613993 5.1253372-.72408173 2.2009642 2.2038129c-2.9243443 2.9278659-2.936044 7.679714-.0263623 10.5928996 2.5722169 2.5753145 6.5658148 2.8778179 9.494932.8737123l3.9723349 3.9771184c.4706423.4712091 1.242094.4698977 1.7151079-.0036859l.2866752-.2870203c.4730139-.4735836.4755851-1.2472272.0049428-1.7184362l-3.9764138-3.9812023c1.964499-2.9124813 1.6740015-6.9123777-.8906851-9.4801528zm-2.0235426 8.5943476c-1.8178643 1.8200535-4.768277 1.8274491-6.5769981.0165499-1.808721-1.8108992-1.8013344-4.7648648.01653-6.5849182 1.8178357-1.8200247 4.768277-1.827449 6.5769981-.0165499 1.808721 1.8108992 1.8013057 4.7648935-.01653 6.5849182z"></path></svg>