<svg viewBox="0 0 15 18" xmlns="http://www.w3.org/2000/svg"><path d="M8.26700529 14.0648991c0 .0783538-.06126617.1392956-.13824161.1392956H5.17306383c-.07540451 0-.13824161-.0609418-.13824161-.1392956V3.92164622c0-.07677087.0628371-.1377127.13824161-.1377127h2.95569985c.07697544 0 .13824161.06094183.13824161.1377127V14.0648991zM6.23422527 2.14562723c-1.77828978 0-3.92103472 3.05184012-3.92103472 6.8397309 0 4.40838937 2.55118605 6.71547287 3.92103472 6.71547287 2.38388229 0 4.24778763-2.9505342 4.24778763-6.71547287 0-3.77127028-1.90474946-6.8397309-4.24778763-6.8397309zM9.71854218 14.3308271c-.97633136 1.4665611-2.28177201 2.273051-3.6791119 2.273051-1.27480756 0-2.54490234-.829442-3.48510238-2.2762168-.94962559-1.4626039-1.47117348-3.3589237-1.47117348-5.34230317 0-1.99525128.51526418-3.89315394 1.45232236-5.34230312.95433837-1.47130986 2.23071686-2.31658093 3.5039535-2.31658093 1.39184165 0 2.70199507.82073605 3.69403571 2.31183221.95119651 1.42936288 1.47431531 3.32647408 1.47431531 5.34705184 0 2.00474867-.5294025 3.90265137-1.48923912 5.34546897zM10.1858931.16699644L8.3251296.01741195 6.15175158 0h-.07540451c-1.46803163.00474871-2.9761219.96952909-4.14332094 2.61179264C.6857098 4.36406806 0 6.63949347 0 9.01701622 0 14.1685793 3.21176101 18 6.08577263 18h.00706918l2.4852071-.1250495c.0973975 0 1.61884069-.1369212 1.66518299-.1369212C11.5667382 17.7380293 15 14.6909379 15 9.02334784c0-5.96359319-3.3806357-8.8563514-4.8141069-8.8563514zM7.58600827 13.47685c0 .0767709-.05969524.1203008-.10446667.1203008h-.87422108c-.03848772.0031658-.10760852-.0356154-.10760852-.1203008V4.58171745c0-.07360506.0518406-.1210922.09818296-.1210922h.88050479c.05655338 0 .10760852.05381875.10760852.1210922V13.47685z" fill-rule="evenodd"></path></svg>