<svg viewBox="0 0 45 46" xmlns="http://www.w3.org/2000/svg"><path d="M23.24074079 2.54605578c.38527448-.38527449.91105957-.596684 1.45580223-.58535399l12.85699675.26741052c.51592375.0107306 1.00773285.22046194 1.37262491.585354l4.78896454 4.78896454c.36489206.36489206.57462332.85670109.58535395 1.37262486l.26741053 12.85699677c.01132998.54474262-.20007954 1.0705277-.58535402 1.45580219L21.99306155 45.2773328c-.78104858.78104858-2.04737854.78104858-2.82842713 0L1.25126266 27.36396103c-.78104859-.78104858-.78104859-2.04737854 0-2.82842712L23.24074079 2.54605578zm9.19056375 5.62500693c-1.63648275 1.63648275-1.63648275 4.28974553 0 5.92622828 1.63648275 1.63648275 4.28974552 1.63648275 5.92622827 0 1.63648275-1.63648275 1.63648275-4.28974553 0-5.92622828-1.63648275-1.63648275-4.28974552-1.63648275-5.92622827 0z" fill-rule="evenodd"></path></svg>